<?xml version="1.0" encoding="UTF-8"?>
<svg version="1.1" xmlns="http://www.w3.org/2000/svg" width="1024" height="1024">
<path d="M0 0 C337.92 0 675.84 0 1024 0 C1024 337.92 1024 675.84 1024 1024 C686.08 1024 348.16 1024 0 1024 C0 686.08 0 348.16 0 0 Z " fill="#F3F0EB" transform="translate(0,0)"/>
<path d="M0 0 C1.81101689 -0.00374183 3.62203216 -0.00834547 5.43304491 -0.01373065 C10.38403162 -0.02591042 15.3349505 -0.02570612 20.28594875 -0.02334189 C25.6358741 -0.02293245 30.98577807 -0.03398514 36.33569336 -0.04345703 C46.808372 -0.06004103 57.28102812 -0.06556542 67.75371879 -0.06668179 C76.27157119 -0.06763361 84.78941618 -0.0717506 93.30726624 -0.07808304 C117.48357145 -0.09568928 141.65985894 -0.10492301 165.83617061 -0.10342209 C167.78952873 -0.10330222 167.78952873 -0.10330222 169.78234863 -0.10317993 C171.73810604 -0.10305729 171.73810604 -0.10305729 173.7333737 -0.10293217 C194.85173864 -0.10211971 215.97003217 -0.1212489 237.08837646 -0.14945666 C258.79865626 -0.17822504 280.50890128 -0.19199475 302.21920061 -0.19026911 C314.39729866 -0.18960652 326.57532188 -0.19504126 338.75340271 -0.21662521 C349.12439024 -0.2348892 359.49526902 -0.2391417 369.86626571 -0.22560637 C375.1507983 -0.21910268 380.43512259 -0.2188649 385.71963501 -0.23631287 C390.57090465 -0.25216462 395.42180294 -0.24905795 400.2730642 -0.2317446 C402.01463969 -0.22870109 403.75624375 -0.23220526 405.49778551 -0.24346475 C436.30663981 -0.42922913 465.40554766 9.21150641 488.98742676 29.26742554 C490.28873535 30.34250366 490.28873535 30.34250366 491.61633301 31.43930054 C514.61658322 51.16408476 529.31736915 80.10510229 531.98742676 110.26742554 C532.10810752 112.99626054 532.11634298 115.71773167 532.10323715 118.44889069 C532.10360141 119.22408054 532.10396567 119.9992704 532.10434097 120.79795086 C532.10432048 123.38094309 532.09711879 125.9638631 532.08990479 128.54684448 C532.0883574 130.42340487 532.08724667 132.29996566 532.08653378 134.17652655 C532.08326645 139.32250276 532.07364289 144.46845028 532.06292653 149.61441565 C532.05243851 155.16882266 532.04776056 160.72323515 532.04225159 166.27764893 C532.02904655 178.41837765 532.00818062 190.55908591 531.9856863 202.69980049 C531.97165352 210.28465226 531.95915325 217.86950607 531.94693756 225.45436096 C531.91282453 246.46653177 531.87688061 267.47869781 531.83384323 288.49085236 C531.83106736 289.84856759 531.82829156 291.20628283 531.82551582 292.56399807 C531.82273155 293.92490774 531.81994703 295.28581742 531.81716228 296.64672709 C531.81157617 299.37673854 531.80599422 302.10675 531.80041504 304.83676147 C531.79902959 305.51364086 531.79764414 306.19052025 531.7962167 306.88791113 C531.75139687 328.82575424 531.71879235 350.76359152 531.69357015 372.70146535 C531.66683186 395.91931154 531.62928938 419.1371162 531.57939553 442.35492659 C531.5524743 455.00187338 531.53028684 467.64878849 531.52037811 480.29576111 C531.51188389 491.0661962 531.49315763 501.83655341 531.4612743 512.60694569 C531.44532167 518.09761194 531.43407556 523.58817729 531.43587685 529.07886887 C531.43741155 534.11510997 531.42501299 539.15112613 531.40197852 544.18731302 C531.39605969 545.9995726 531.39504487 547.81185705 531.39970991 549.6241203 C531.43340363 564.48254098 530.25487865 579.05734137 524.73742676 593.01742554 C524.4344165 593.80762085 524.13140625 594.59781616 523.81921387 595.41195679 C517.66165507 611.0643408 508.52571584 624.0902084 496.98742676 636.26742554 C496.15469238 637.16461304 495.32195801 638.06180054 494.46398926 638.98617554 C472.68002194 661.72838189 441.96507681 674.41074437 410.6297915 675.45164561 C406.00205661 675.55090318 401.37504624 675.54426735 396.74649048 675.53485107 C394.9716936 675.53859765 393.19689836 675.54320313 391.42210567 675.54858172 C386.59450023 675.56070212 381.76696465 675.56056437 376.93934751 675.55819297 C371.71359288 675.55778202 366.48785984 675.56885009 361.26211548 675.57830811 C351.04379251 675.59485718 340.82549262 675.60041482 330.60715736 675.60153286 C322.29679579 675.60248594 313.98644179 675.60660914 305.67608261 675.61293411 C282.07762768 675.63052746 258.47919087 675.63977561 234.88072933 675.63827316 C233.61092483 675.63819325 232.34112034 675.63811334 231.03283691 675.63803101 C229.76146999 675.63794924 228.49010306 675.63786748 227.18020986 675.63778324 C206.57234211 675.63697019 185.96454741 675.65611781 165.35670079 675.68430774 C144.16042306 675.71307234 122.96418092 675.72684616 101.76788318 675.72512019 C89.88220242 675.72445767 77.99659832 675.72988949 66.11093521 675.75147629 C55.99366223 675.76973486 45.87650072 675.77399684 35.75921835 675.76045744 C30.60439005 675.75395229 25.4497753 675.75372162 20.29496765 675.77116394 C15.56360726 675.787008 10.83262776 675.78391676 6.10127603 675.76659568 C4.40226315 675.76355061 2.70322101 675.7670624 1.00424267 675.77831583 C-14.48578262 675.87400903 -29.83178667 673.7148689 -44.20007324 667.64242554 C-45.01975586 667.30469116 -45.83943848 666.96695679 -46.68395996 666.61898804 C-58.93312875 661.37849885 -69.97295098 653.99391839 -80.01257324 645.26742554 C-80.91491699 644.49785522 -81.81726074 643.72828491 -82.74694824 642.93539429 C-105.99280071 622.54711208 -122.67997985 592.23999553 -125.18743543 561.09550518 C-125.45819511 555.45489966 -125.42074035 549.81160905 -125.4002533 544.16604614 C-125.40443414 542.27335491 -125.40991576 540.38066618 -125.41657311 538.48798203 C-125.43094805 533.32518089 -125.42680799 528.16254047 -125.41940629 522.99973083 C-125.41465709 517.41674181 -125.42719998 511.8337867 -125.43742371 506.25080872 C-125.45458326 495.32767446 -125.45545755 484.4045978 -125.4502108 473.48145357 C-125.44616227 464.59848235 -125.44762077 455.71552809 -125.45295906 446.83255768 C-125.45370748 445.56618495 -125.4544559 444.29981223 -125.45522701 442.99506457 C-125.45675856 440.42205347 -125.4582969 437.84904238 -125.45984197 435.27603129 C-125.46966427 418.01114522 -125.47384137 400.74626728 -125.46621609 383.48138046 C-125.46591891 382.80711699 -125.46562174 382.13285352 -125.46531556 381.43815783 C-125.46286697 375.9636967 -125.46025521 370.48923565 -125.45763143 365.01477461 C-125.44753303 343.67073903 -125.45588049 322.32678217 -125.47912598 300.98275757 C-125.50524088 276.96555305 -125.5179856 252.94840222 -125.51093823 228.93117833 C-125.50745131 216.22834279 -125.50964312 203.52557183 -125.52718925 190.82274628 C-125.54194245 180.00823332 -125.54250603 169.19383044 -125.52511834 158.37931958 C-125.51663135 152.8680674 -125.51440236 147.3570116 -125.5297699 141.84576988 C-125.54369585 136.7886572 -125.53875305 131.73190766 -125.51953066 126.67481557 C-125.51579443 124.85730771 -125.51862296 123.03977019 -125.52914231 121.22228894 C-125.70557672 88.37090487 -113.62454027 60.77012975 -91.39147949 36.64242554 C-87.21981645 32.47761252 -82.69548374 28.83822853 -78.01257324 25.26742554 C-76.86208496 24.37603882 -76.86208496 24.37603882 -75.68835449 23.46664429 C-64.86715075 15.47475358 -52.91725075 9.61283573 -40.20007324 5.32992554 C-39.36564697 5.04762085 -38.5312207 4.76531616 -37.67150879 4.47445679 C-25.20740072 0.48711495 -12.96765301 -0.02553676 0 0 Z " fill="#6C6DCA" transform="translate(309.0125732421875,135.73257446289063)"/>
<path d="M0 0 C0.71749924 -0.0065712 1.43499847 -0.0131424 2.17424011 -0.01991272 C4.54959219 -0.03962611 6.92488096 -0.05130656 9.30029297 -0.0612793 C10.11375057 -0.06535482 10.92720818 -0.06943035 11.76531601 -0.07362938 C16.07449844 -0.09448606 20.38364911 -0.10878708 24.69287109 -0.11816406 C29.12793435 -0.12920185 33.56249219 -0.16357206 37.9973774 -0.20333576 C41.42051069 -0.2295816 44.84352529 -0.23786314 48.26675034 -0.24144554 C49.90050529 -0.24629433 51.53425554 -0.25785926 53.16791153 -0.27648354 C71.73339937 -0.47490799 71.73339937 -0.47490799 79.12451172 6.1574707 C79.65431641 6.88579102 80.18412109 7.61411133 80.72998047 8.36450195 C81.70837891 9.68514648 81.70837891 9.68514648 82.70654297 11.0324707 C83.43615234 12.07016602 84.16576172 13.10786133 84.91748047 14.17700195 C85.82074394 15.44420167 86.72441563 16.71111048 87.62841797 17.9777832 C89.66803916 20.84822256 91.69275076 23.72861793 93.71044922 26.61450195 C96.90054969 31.16871947 100.15263612 35.67619128 103.41748047 40.17700195 C108.12825115 46.6773196 112.78046031 53.2156461 117.39794922 59.7824707 C121.03202719 64.94267066 124.71429319 70.06621862 128.41748047 75.17700195 C134.15056637 83.09184792 139.80295221 91.06080951 145.42480469 99.05493164 C147.96087396 102.66034776 150.5012619 106.262714 153.04248047 109.86450195 C153.54271729 110.57356689 154.0429541 111.28263184 154.55834961 112.01318359 C157.66379035 116.41141459 160.78395022 120.79874812 163.91748047 125.17700195 C172.68978816 137.43662518 181.3670334 149.76158007 189.91748047 162.17700195 C193.54946926 158.83859194 196.13473314 155.12416895 198.85498047 151.05200195 C202.96836736 144.98049416 207.17245732 138.98739031 211.47998047 133.05200195 C212.3053833 131.91396118 212.3053833 131.91396118 213.14746094 130.75292969 C214.23073597 129.25984936 215.31422655 127.76692538 216.39794922 126.27416992 C223.81901996 116.03204304 231.09855744 105.68819784 238.38525391 95.3503418 C241.39224306 91.08517012 244.40273917 86.82247321 247.41259766 82.55932617 C249.93884213 78.98089181 252.46419651 75.40183561 254.98779297 71.8215332 C262.2540873 61.51477382 269.53399166 51.21824377 276.93701172 41.0090332 C277.46431885 40.28143799 277.99162598 39.55384277 278.53491211 38.80419922 C279.62320603 37.30285161 280.71223613 35.80203737 281.80200195 34.30175781 C284.81262641 30.14241808 287.77378256 25.95480389 290.68310547 21.72387695 C291.61848145 20.36770264 291.61848145 20.36770264 292.57275391 18.98413086 C293.77529344 17.23570586 294.9715802 15.48295874 296.16064453 13.7253418 C300.13795709 7.94854636 303.89666427 3.13045219 310.91748047 1.17700195 C314.37060827 0.77199544 317.81869362 0.65650784 321.29248047 0.55200195 C322.37577637 0.51695557 323.45907227 0.48190918 324.57519531 0.44580078 C328.68907731 0.3318176 332.80269258 0.24952968 336.91748047 0.17700195 C337.82522217 0.16026428 338.73296387 0.14352661 339.66821289 0.12628174 C345.89630954 0.01557323 352.12393585 -0.06161863 358.35284424 -0.10809326 C360.47103438 -0.12629237 362.58917896 -0.15102159 364.70721436 -0.18243408 C367.72805079 -0.22458363 370.74794757 -0.23988294 373.76904297 -0.2487793 C374.67342102 -0.26623703 375.57779907 -0.28369476 376.50958252 -0.30168152 C382.47516337 -0.28167384 386.92323802 0.82700786 391.91748047 4.17700195 C395.68836463 8.19116896 396.04237562 11.8561672 396.0405283 17.21525097 C396.04251935 18.48569671 396.04451039 19.75614245 396.04656178 21.06508654 C396.04370854 22.48294097 396.04076294 23.90079522 396.03773499 25.31864929 C396.0381708 26.81854118 396.03904591 28.31843299 396.04032415 29.81832439 C396.04256702 33.95032731 396.03855065 38.08230445 396.03354609 42.21430409 C396.02923881 46.66623569 396.03068821 51.11816578 396.03144836 55.57009888 C396.03197342 63.28684014 396.02882851 71.00357297 396.02321053 78.72031212 C396.01509308 89.87750423 396.01248005 101.03469225 396.01122253 112.191887 C396.0090324 130.29247776 396.00237336 148.39306402 395.99291992 166.49365234 C395.98374481 184.07958961 395.97666446 201.66552566 395.97241211 219.25146484 C395.97201802 220.87670168 395.97201802 220.87670168 395.97161598 222.53477158 C395.97031097 227.97017754 395.96904725 233.4055835 395.96780407 238.84098947 C395.95743266 283.95299675 395.93981539 329.06499912 395.91748047 374.17700195 C396.93439217 374.1670092 396.93439217 374.1670092 397.97184753 374.15681458 C405.02830259 374.09044042 412.08466893 374.04519249 419.14135742 374.01220703 C421.77485761 373.99712138 424.40833267 373.97665029 427.04174805 373.95068359 C430.8272115 373.91429177 434.61234274 373.89727305 438.39794922 373.8840332 C439.57520065 373.86854935 440.75245209 373.85306549 441.96537781 373.83711243 C443.06614151 373.83688583 444.16690521 373.83665924 445.30102539 373.83642578 C446.74997444 373.82643303 446.74997444 373.82643303 448.22819519 373.8162384 C452.56658488 374.39822681 455.16616829 376.40481999 458.16748047 379.48950195 C460.21618466 382.63572625 460.99439041 384.40841471 460.91748047 388.17700195 C457.90192649 392.74897088 453.91652127 395.98294565 449.76904297 399.5168457 C447.51800194 401.53518418 445.74900853 403.77706863 443.91748047 406.17700195 C442.26427268 407.85701968 440.59505343 409.52131343 438.91748047 411.17700195 C437.94757347 412.14346914 436.97828795 413.11056031 436.009552 414.07820129 C434.92956314 415.15517964 433.84955516 416.23213883 432.76953125 417.30908203 C426.71687169 423.34537973 420.6667759 429.38424038 414.61812019 435.42455006 C410.96679101 439.07066054 407.31453202 442.71582954 403.66015625 446.35888672 C400.11195683 449.89617137 396.56625056 453.43593794 393.02221298 456.9773922 C391.67800239 458.31976661 390.3329175 459.66126617 388.98691177 461.00184059 C379.81090965 470.09410026 379.81090965 470.09410026 371.18486023 479.70269775 C369.4754956 481.69114946 367.59918485 483.41603129 365.60498047 485.11450195 C364.94884766 485.68040039 364.29271484 486.24629883 363.61669922 486.8293457 C360.68530511 489.15424448 358.48764798 489.47114304 354.79248047 489.67700195 C353.88240234 489.74918945 352.97232422 489.82137695 352.03466797 489.89575195 C344.08972237 488.06383467 337.38133248 478.78425411 331.77929688 473.16821289 C330.9035199 472.29418823 330.02774292 471.42016357 329.12542725 470.51965332 C326.74792779 468.1457752 324.3726669 465.76970265 321.99857378 463.39242077 C319.50530534 460.89660266 317.00957771 458.40324549 314.51425171 455.90948486 C310.33159635 451.72864194 306.15103886 447.54571002 301.97167969 443.36157227 C297.14172193 438.52615584 292.30814834 433.69437628 287.47271597 428.86443496 C283.31105536 424.70731069 279.15134444 420.54824307 274.99326074 416.38754106 C272.5138908 413.90661351 270.03385336 411.42636338 267.55205154 408.94786835 C264.7916011 406.19084038 262.03524472 403.42974205 259.27929688 400.66821289 C258.45748932 399.84842957 257.63568176 399.02864624 256.78897095 398.184021 C255.66627808 397.05709839 255.66627808 397.05709839 254.52090454 395.90740967 C253.86944773 395.25557583 253.21799091 394.60374199 252.54679298 393.93215561 C249.31202926 390.44755255 248.42638157 387.94783842 248.52294922 383.1809082 C249.18831744 379.80136468 251.30188214 378.23211493 253.91748047 376.17700195 C271.51040834 367.38053802 293.24798915 375.17700195 312.91748047 375.17700195 C312.42248047 254.39700195 312.42248047 254.39700195 311.91748047 131.17700195 C308.73158518 134.36289725 306.07951265 137.08213758 303.42138672 140.59106445 C302.78765137 141.42460449 302.15391602 142.25814453 301.50097656 143.11694336 C300.83404785 144.0030127 300.16711914 144.88908203 299.47998047 145.80200195 C298.77695801 146.73061035 298.07393555 147.65921875 297.34960938 148.6159668 C291.04005252 156.96956457 284.82167141 165.38922162 278.63525391 173.83422852 C275.7367723 177.78730264 272.82652769 181.73170034 269.91748047 185.67700195 C266.35705499 190.5076873 262.79773753 195.33917963 259.24169922 200.1730957 C253.63078094 207.79818977 248.00579492 215.41033563 242.31201172 222.97387695 C239.22093021 227.10876576 236.16338705 231.26791529 233.10498047 235.42700195 C228.143409 242.17225402 223.168832 248.90706563 218.11450195 255.58325195 C215.84165743 258.58770536 213.60269956 261.60271052 211.45263672 264.6965332 C203.62481558 275.76252992 203.62481558 275.76252992 196.91748047 277.17700195 C190.30096546 277.94172479 183.60043583 278.20427992 177.73388672 274.67700195 C173.77508114 271.40779477 170.89292274 267.3260909 167.91748047 263.17700195 C167.18013672 262.15477539 166.44279297 261.13254883 165.68310547 260.0793457 C164.0255554 257.76931176 162.38013577 255.45098914 160.73779297 253.13012695 C157.599826 248.71140292 154.38684892 244.34911897 151.16748047 239.98950195 C150.57499512 239.18714111 149.98250977 238.38478027 149.37207031 237.55810547 C148.15895114 235.91606785 146.94557058 234.2742233 145.73193359 232.63256836 C142.78953352 228.6505097 139.85384645 224.66351088 136.91748047 220.67700195 C135.74951718 219.09236251 134.58154843 217.5077271 133.41357422 215.9230957 C131.09092568 212.77116121 128.7708227 209.61737607 126.45263672 206.4621582 C120.48004743 198.33728449 114.47660773 190.23759577 108.41748047 182.17700195 C100.54122604 171.69904284 92.76991593 161.14560615 85.01074219 150.58081055 C83.10548449 147.98726352 81.19900143 145.39462042 79.29248047 142.80200195 C78.71232178 142.01108154 78.13216309 141.22016113 77.53442383 140.40527344 C76.98794189 139.66220947 76.44145996 138.91914551 75.87841797 138.15356445 C75.40194824 137.50468262 74.92547852 136.85580078 74.43457031 136.18725586 C72.64209507 133.81209636 70.78487559 131.4935365 68.91748047 129.17700195 C68.88524368 138.76031875 68.86594672 148.34363997 68.85498047 157.92700195 C68.85412445 158.67160801 68.85326843 159.41621407 68.85238647 160.18338394 C68.8183335 193.97295942 69.17930655 227.75612787 69.59730625 261.54273033 C69.68547959 268.71395779 69.76449266 275.88525452 69.83767605 283.05665016 C69.87745528 286.86117059 69.92270131 290.66535689 69.98730469 294.46954346 C70.049284 298.14933908 70.09471948 301.82896097 70.13623047 305.5090332 C70.15947388 306.53316818 70.18271729 307.55730316 70.20666504 308.61247253 C70.24670833 313.88688843 69.99445686 317.66614286 66.91748047 322.17700195 C60.9528182 325.90193751 54.7372796 325.72933324 47.85498047 325.86450195 C46.66501465 325.89503662 45.47504883 325.92557129 44.24902344 325.95703125 C40.89092713 326.03318678 37.53341032 326.09187722 34.17486572 326.14123535 C31.77949331 326.17918826 29.38443282 326.22684039 26.98925781 326.27563477 C22.69088872 326.36040346 18.39277434 326.41921164 14.09378052 326.46109009 C12.40056229 326.47994616 10.70740181 326.50509649 9.01437378 326.53671265 C6.61980782 326.57865112 4.22643145 326.59399043 1.83154297 326.6027832 C1.12011642 326.6202359 0.40868988 326.6376886 -0.32429504 326.65567017 C-5.37378962 326.63406894 -8.20702343 325.36077919 -12.08251953 322.17700195 C-14.61285712 318.38149557 -14.37165233 315.3472553 -14.36099243 310.94918823 C-14.36968103 309.67358809 -14.36968103 309.67358809 -14.37854517 308.37221825 C-14.39561392 305.50746631 -14.39842855 302.64287495 -14.40136719 299.77807617 C-14.41066675 297.72501735 -14.42083546 295.6719623 -14.43180847 293.61891174 C-14.45927645 288.00379661 -14.47433316 282.38870692 -14.4872365 276.77354193 C-14.50297011 270.81067993 -14.5297792 264.84786711 -14.55526733 258.88504028 C-14.5969268 248.77794912 -14.63130922 238.67085485 -14.66064453 228.5637207 C-14.69021924 218.37652179 -14.72447568 208.18935814 -14.76513672 198.00219727 C-14.77004537 196.77118152 -14.77495402 195.54016578 -14.78001142 194.27184653 C-14.78993338 191.7925284 -14.79987357 189.31321033 -14.8098321 186.83389235 C-14.8739172 170.84344491 -14.93424449 154.85302819 -14.96954346 138.86248779 C-14.97222426 137.65892852 -14.97490506 136.45536924 -14.97766709 135.21533847 C-14.98830615 130.40087076 -14.99889907 125.58640304 -15.00893641 120.77193403 C-15.04113239 105.77290269 -15.11230687 90.7748467 -15.2309742 75.77625084 C-15.28888687 68.39022176 -15.33034187 61.00413224 -15.36652076 53.61796725 C-15.39625402 47.79732077 -15.44682584 41.97737121 -15.51363277 36.15703869 C-15.54886953 32.63122658 -15.56338759 29.10556384 -15.57173586 25.57959509 C-15.57978249 23.96561076 -15.59646067 22.35164196 -15.62256956 20.73784876 C-15.65690034 18.54908479 -15.66032947 16.36235014 -15.65609741 14.17337036 C-15.66606939 12.95813753 -15.67604137 11.7429047 -15.68631554 10.49084663 C-14.86902458 6.00526661 -13.30699029 4.36934001 -10.08251953 1.17700195 C-6.55279786 0.00042806 -3.7264099 0.02824943 0 0 Z " fill="#F8F6F0" transform="translate(321.08251953125,246.822998046875)"/>
<path d="M0 0 C0.66 0.33 1.32 0.66 2 1 C2 81.19 2 161.38 2 244 C1.67 244 1.34 244 1 244 C0.02241025 195.68657035 -0.2828644 147.37445462 -0.51740873 99.05260301 C-0.56780364 88.70049509 -0.62234641 78.34841003 -0.67708123 67.9963243 C-0.76191913 51.93229506 -0.84469755 35.8682564 -0.92407227 19.80419922 C-0.92803576 19.00647787 -0.93199924 18.20875652 -0.93608284 17.3868618 C-0.94706205 15.17318131 -0.95793542 12.95950032 -0.96876526 10.74581909 C-0.97484078 9.50780485 -0.98091631 8.26979061 -0.98717594 6.99426079 C-0.99573345 4.99618761 -1 2.9980915 -1 1 C-0.67 0.67 -0.34 0.34 0 0 Z " fill="#6565BC" transform="translate(632,377)"/>
<path d="M0 0 C0.33 0 0.66 0 1 0 C1.78008558 34.04502901 2.09444869 68.07169407 2.0625 102.125 C2.06164398 103.04393414 2.06078796 103.96286827 2.05990601 104.9096489 C2.04853249 116.27311945 2.02848126 127.63655962 2 139 C1.67 139 1.34 139 1 139 C0.67 133.39 0.34 127.78 0 122 C-0.33 122 -0.66 122 -1 122 C-1.1440556 92.6614143 -0.91586274 63.33518244 -0.5 34 C-0.48804218 33.1562104 -0.47608437 32.31242081 -0.46376419 31.44306183 C-0.31471988 20.96195718 -0.16003403 10.48094251 0 0 Z " fill="#7072D3" transform="translate(391,415)"/>
<path d="M0 0 C3.67118618 2.77563026 5.63611867 4.53638838 7 9 C5.68 7.68 4.36 6.36 3 5 C2.67 40.97 2.34 76.94 2 114 C1.67 114 1.34 114 1 114 C0.14569441 86.74856036 -0.0919016 59.51262923 -0.0625 32.25 C-0.06164398 31.4506176 -0.06078796 30.6512352 -0.05990601 29.82762909 C-0.04847196 19.88506281 -0.02833271 9.94253293 0 0 Z " fill="#6365B1" transform="translate(389,375)"/>
<path d="M0 0 C1.65137215 0.03014442 1.65137215 0.03014442 3.33610535 0.06089783 C4.52367935 0.08793289 5.71125336 0.11496796 6.93481445 0.14282227 C8.7596209 0.17823875 8.7596209 0.17823875 10.62129211 0.21437073 C14.51367734 0.29105267 18.4058659 0.37505794 22.2980957 0.45922852 C24.93415373 0.51244463 27.57022141 0.56518506 30.20629883 0.61743164 C36.67451995 0.74667401 43.14259454 0.88193221 49.6105957 1.02172852 C50.1055957 2.01172852 50.1055957 2.01172852 50.6105957 3.02172852 C49.55276886 3.03718971 49.55276886 3.03718971 48.47357178 3.05296326 C41.82304127 3.1509975 35.17259682 3.2535203 28.52221298 3.36106777 C25.10330098 3.41619922 21.68438028 3.46960328 18.26538086 3.51904297 C14.33348958 3.57597528 10.40173934 3.64045088 6.4699707 3.70532227 C5.24381042 3.72203476 4.01765015 3.73874725 2.7543335 3.75596619 C1.04301239 3.78588402 1.04301239 3.78588402 -0.70288086 3.81640625 C-1.70659729 3.83195053 -2.71031372 3.84749481 -3.7444458 3.86351013 C-6.10526434 4.00473159 -8.12931761 4.35223707 -10.3894043 5.02172852 C-9.5769043 3.08422852 -9.5769043 3.08422852 -8.3894043 1.02172852 C-5.27836045 -0.0152861 -3.25527622 -0.0670423 0 0 Z " fill="#6769C1" transform="translate(583.389404296875,618.978271484375)"/>
<path d="M0 0 C2.57142805 2.15668159 3.88974743 3.70166951 5.0625 6.875 C4.97216141 11.39192949 3.10646812 12.81776437 0 16 C-0.66 15.34 -1.32 14.68 -2 14 C-1.34 12.68 -0.68 11.36 0 10 C0.66 10 1.32 10 2 10 C1.54177532 6.53058454 1.10868317 3.32604951 0 0 Z " fill="#EDECF0" transform="translate(777,625)"/>
<path d="M0 0 C0.99 0 1.98 0 3 0 C2.39831451 3.36943872 1.34195851 5.49075874 -1 8 C-3.6875 9.25 -3.6875 9.25 -6 10 C-4.63356852 6.01457486 -2.89890986 3.07460137 0 0 Z " fill="#6769C3" transform="translate(210,181)"/>
<path d="M0 0 C0.66 0 1.32 0 2 0 C1.45650964 3.80443255 -0.03084153 5.6081779 -3 8 C-5.75 8.75 -5.75 8.75 -8 9 C-7.04270084 7.87411986 -6.08412105 6.7493285 -5.125 5.625 C-4.59132813 4.99851562 -4.05765625 4.37203125 -3.5078125 3.7265625 C-2.38567993 2.44163349 -1.20628025 1.20628025 0 0 Z " fill="#6162C2" transform="translate(695,723)"/>
<path d="M0 0 C0.66 0.33 1.32 0.66 2 1 C0.58852088 4.52869781 -0.63093896 5.41455951 -4 7 C-5.37086915 8.29470975 -6.71340837 9.62150897 -8 11 C-8.66 10.67 -9.32 10.34 -10 10 C-6.7 6.7 -3.4 3.4 0 0 Z " fill="#6F6FBD" transform="translate(775,641)"/>
<path d="M0 0 C3.63 0 7.26 0 11 0 C11 0.99 11 1.98 11 3 C9.35333797 2.8864371 7.70763918 2.75882619 6.0625 2.625 C5.14597656 2.55539062 4.22945313 2.48578125 3.28515625 2.4140625 C2.15400391 2.20910156 2.15400391 2.20910156 1 2 C0.67 1.34 0.34 0.68 0 0 Z " fill="#6868C1" transform="translate(274,805)"/>
<path d="M0 0 C2.93200474 2.85276137 5.64315404 5.65079784 8 9 C7.67 9.66 7.34 10.32 7 11 C6.34 9.68 5.68 8.36 5 7 C4.01 7 3.02 7 2 7 C1.34 4.69 0.68 2.38 0 0 Z " fill="#6263BA" transform="translate(439,442)"/>
<path d="M0 0 C1.65 0 3.3 0 5 0 C4.6875 1.875 4.6875 1.875 4 4 C3.01 4.66 2.02 5.32 1 6 C1 5.01 1 4.02 1 3 C0.34 2.67 -0.32 2.34 -1 2 C-0.67 1.34 -0.34 0.68 0 0 Z " fill="#6466C5" transform="translate(801,769)"/>
<path d="M0 0 C0.33 0.99 0.66 1.98 1 3 C-1.64 5.97 -4.28 8.94 -7 12 C-7 8.19654123 -5.86213669 7.22298985 -3.5 4.3125 C-2.8503125 3.50425781 -2.200625 2.69601562 -1.53125 1.86328125 C-1.0259375 1.24839844 -0.520625 0.63351562 0 0 Z " fill="#6061B6" transform="translate(550,487)"/>
<path d="M0 0 C2.31 0.66 4.62 1.32 7 2 C7.33 3.32 7.66 4.64 8 6 C6.02 5.34 4.04 4.68 2 4 C2 3.34 2 2.68 2 2 C1.34 2 0.68 2 0 2 C0 1.34 0 0.68 0 0 Z " fill="#6568C6" transform="translate(778,153)"/>
<path d="M0 0 C1.27875 -0.061875 2.5575 -0.12375 3.875 -0.1875 C4.95394531 -0.23970703 4.95394531 -0.23970703 6.0546875 -0.29296875 C6.69664062 -0.19628906 7.33859375 -0.09960938 8 0 C8.66 0.99 9.32 1.98 10 3 C8.72125 3.061875 7.4425 3.12375 6.125 3.1875 C5.40570312 3.22230469 4.68640625 3.25710938 3.9453125 3.29296875 C3.30335938 3.19628906 2.66140625 3.09960938 2 3 C1.34 2.01 0.68 1.02 0 0 Z " fill="#E6E4E3" transform="translate(724,810)"/>
<path d="M0 0 C0.66 0.33 1.32 0.66 2 1 C0.35 2.98 -1.3 4.96 -3 7 C-3.33 5.68 -3.66 4.36 -4 3 C-2.68 2.01 -1.36 1.02 0 0 Z " fill="#6567C6" transform="translate(555,482)"/>
<path d="M0 0 C1.125 3.75 1.125 3.75 0 6 C-1.65 6 -3.3 6 -5 6 C-3.35 4.02 -1.7 2.04 0 0 Z " fill="#6465BE" transform="translate(390,565)"/>
</svg>
